<svg width="29" height="29" viewBox="0 0 29 29" fill="none" xmlns="http://www.w3.org/2000/svg">
<path id="Vector" d="M17.961 0.00242758C17.7435 0.0111277 17.5336 0.0502784 17.3149 0.104654L2.52806 3.70652C0.778953 4.135 -0.31663 5.89895 0.111413 7.64877L2.17684 16.1118C2.30201 16.6159 2.54616 17.0826 2.88886 17.4728C3.23157 17.8629 3.66283 18.1652 4.14655 18.3543L4.14833 16.3152C4.15095 13.3169 6.59238 10.8776 9.59067 10.8776L23.2869 10.8776L21.2551 2.48306C21.0754 1.75335 20.6495 1.10816 20.0492 0.656278C19.449 0.204395 18.711 -0.0265357 17.9599 0.00242758L17.961 0.00242758ZM19.2815 4.6929L20.1624 8.39698L16.4913 9.28005L15.5766 5.60967L19.2815 4.6929ZM9.58877 13.0527C7.78784 13.0527 6.32494 14.5143 6.32337 16.3152L6.31578 25.0154C6.31421 26.8163 7.77456 28.2779 9.57549 28.2779H24.8007C26.6017 28.2779 28.0646 26.8163 28.0662 25.0154L28.0737 16.3152C28.0753 14.5143 26.615 13.0527 24.814 13.0527L9.58877 13.0527ZM9.58726 14.7862L24.8125 14.7862C25.651 14.7862 26.341 15.4767 26.3402 16.3152L26.3393 17.4027H8.05593L8.05687 16.3152C8.05761 15.4767 8.74878 14.7862 9.58726 14.7862ZM8.05308 20.6653H26.3364L26.3326 25.0154C26.3319 25.8538 25.6407 26.5444 24.8023 26.5444H9.577C9.17218 26.5421 8.78472 26.3803 8.49871 26.094C8.2127 25.8078 8.05121 25.4202 8.04928 25.0154L8.05308 20.6653Z" fill="black"/>
</svg>
